# xmcd
#
# Track frame offsets: 
#        150
#        25450
#        41391
#        51190
#        69653
#        91962
#        113963
#        130471
#        151585
#        156982
#        199123
#        217926
#        244670
#
# Disc length: 3581 seconds
#
# Revision: 4
# Processed by: cddbd v1.5.2PL0 Copyright (c) Steve Scherf et al.
# Submitted via: ExactAudioCopy v0.99pb4
#
DISCID=af0dfb0d
DTITLE=Rez - Twenty Years CD2
DYEAR=1991
DGENRE=Christian Rock
TTITLE0=My Jesus Is All
TTITLE1=Lovespeak
TTITLE2=Wendi's In Your Arms Intro
TTITLE3=In Your Arms
TTITLE4=Bargain
TTITLE5=Shadows
TTITLE6=Somebody To Love
TTITLE7=Every Time It Rains
TTITLE8=Glenn's Where Roses Grow Intro
TTITLE9=Where Roses Grow
TTITLE10=Light/Light
TTITLE11=Glenn's Rap
TTITLE12=I Will Do My Last Singing In This Land Somewhere
EXTD=
EXTT0=
EXTT1=
EXTT2=
EXTT3=
EXTT4=
EXTT5=
EXTT6=
EXTT7=
EXTT8=
EXTT9=
EXTT10=
EXTT11=
EXTT12=
PLAYORDER=
